<mxfile host="app.diagrams.net" agent="Mozilla/5.0 (Windows NT 10.0; Win64; x64) AppleWebKit/537.36 (KHTML, like Gecko) Chrome/132.0.0.0 Safari/537.36 OPR/117.0.0.0" version="26.2.10">
  <diagram name="PÃ¡gina-1" id="iVZSDqrNF2nzEe89y8sN">
    <mxGraphModel dx="534" dy="307" grid="1" gridSize="10" guides="1" tooltips="1" connect="1" arrows="1" fold="1" page="1" pageScale="1" pageWidth="827" pageHeight="1169" math="0" shadow="0">
      <root>
        <mxCell id="0" />
        <mxCell id="1" parent="0" />
        <mxCell id="c9yHNogpHMQOPI-Mq2PM-4" value="" style="endArrow=classic;html=1;rounded=0;" edge="1" parent="1">
          <mxGeometry width="50" height="50" relative="1" as="geometry">
            <mxPoint x="200" y="440" as="sourcePoint" />
            <mxPoint x="200" y="280" as="targetPoint" />
          </mxGeometry>
        </mxCell>
        <mxCell id="c9yHNogpHMQOPI-Mq2PM-5" value="" style="endArrow=classic;html=1;rounded=0;" edge="1" parent="1">
          <mxGeometry width="50" height="50" relative="1" as="geometry">
            <mxPoint x="200" y="400" as="sourcePoint" />
            <mxPoint x="600" y="400" as="targetPoint" />
          </mxGeometry>
        </mxCell>
        <mxCell id="c9yHNogpHMQOPI-Mq2PM-6" value="" style="endArrow=classic;html=1;rounded=0;" edge="1" parent="1">
          <mxGeometry width="50" height="50" relative="1" as="geometry">
            <mxPoint x="200" y="320" as="sourcePoint" />
            <mxPoint x="600" y="320" as="targetPoint" />
          </mxGeometry>
        </mxCell>
        <mxCell id="c9yHNogpHMQOPI-Mq2PM-9" value="" style="endArrow=none;dashed=1;html=1;rounded=0;" edge="1" parent="1">
          <mxGeometry width="50" height="50" relative="1" as="geometry">
            <mxPoint x="240" y="440" as="sourcePoint" />
            <mxPoint x="240" y="280" as="targetPoint" />
          </mxGeometry>
        </mxCell>
        <mxCell id="c9yHNogpHMQOPI-Mq2PM-10" value="" style="endArrow=none;dashed=1;html=1;rounded=0;" edge="1" parent="1">
          <mxGeometry width="50" height="50" relative="1" as="geometry">
            <mxPoint x="560" y="440" as="sourcePoint" />
            <mxPoint x="560" y="280" as="targetPoint" />
          </mxGeometry>
        </mxCell>
        <mxCell id="c9yHNogpHMQOPI-Mq2PM-11" value="" style="endArrow=none;dashed=1;html=1;rounded=0;" edge="1" parent="1">
          <mxGeometry width="50" height="50" relative="1" as="geometry">
            <mxPoint x="440" y="440" as="sourcePoint" />
            <mxPoint x="440" y="280" as="targetPoint" />
          </mxGeometry>
        </mxCell>
        <mxCell id="c9yHNogpHMQOPI-Mq2PM-12" value="" style="endArrow=none;dashed=1;html=1;rounded=0;" edge="1" parent="1">
          <mxGeometry width="50" height="50" relative="1" as="geometry">
            <mxPoint x="480" y="440" as="sourcePoint" />
            <mxPoint x="480" y="280" as="targetPoint" />
          </mxGeometry>
        </mxCell>
        <mxCell id="c9yHNogpHMQOPI-Mq2PM-13" value="" style="endArrow=none;dashed=1;html=1;rounded=0;" edge="1" parent="1">
          <mxGeometry width="50" height="50" relative="1" as="geometry">
            <mxPoint x="400" y="440" as="sourcePoint" />
            <mxPoint x="400" y="280" as="targetPoint" />
          </mxGeometry>
        </mxCell>
        <mxCell id="c9yHNogpHMQOPI-Mq2PM-14" value="" style="endArrow=none;dashed=1;html=1;rounded=0;" edge="1" parent="1">
          <mxGeometry width="50" height="50" relative="1" as="geometry">
            <mxPoint x="360" y="440" as="sourcePoint" />
            <mxPoint x="360" y="280" as="targetPoint" />
          </mxGeometry>
        </mxCell>
        <mxCell id="c9yHNogpHMQOPI-Mq2PM-15" value="" style="endArrow=none;dashed=1;html=1;rounded=0;" edge="1" parent="1">
          <mxGeometry width="50" height="50" relative="1" as="geometry">
            <mxPoint x="520" y="440" as="sourcePoint" />
            <mxPoint x="520" y="280" as="targetPoint" />
          </mxGeometry>
        </mxCell>
        <mxCell id="c9yHNogpHMQOPI-Mq2PM-16" value="" style="endArrow=none;dashed=1;html=1;rounded=0;" edge="1" parent="1">
          <mxGeometry width="50" height="50" relative="1" as="geometry">
            <mxPoint x="320" y="440" as="sourcePoint" />
            <mxPoint x="320" y="280" as="targetPoint" />
          </mxGeometry>
        </mxCell>
        <mxCell id="c9yHNogpHMQOPI-Mq2PM-17" value="" style="endArrow=none;dashed=1;html=1;rounded=0;" edge="1" parent="1">
          <mxGeometry width="50" height="50" relative="1" as="geometry">
            <mxPoint x="280" y="440" as="sourcePoint" />
            <mxPoint x="280" y="280" as="targetPoint" />
          </mxGeometry>
        </mxCell>
        <mxCell id="c9yHNogpHMQOPI-Mq2PM-18" value="1" style="text;html=1;align=center;verticalAlign=middle;resizable=0;points=[];autosize=1;strokeColor=none;fillColor=none;" vertex="1" parent="1">
          <mxGeometry x="70" y="584" width="30" height="30" as="geometry" />
        </mxCell>
        <mxCell id="c9yHNogpHMQOPI-Mq2PM-19" value="1" style="text;html=1;align=center;verticalAlign=middle;resizable=0;points=[];autosize=1;strokeColor=none;fillColor=none;" vertex="1" parent="1">
          <mxGeometry x="70" y="584" width="30" height="30" as="geometry" />
        </mxCell>
        <mxCell id="c9yHNogpHMQOPI-Mq2PM-20" value="1" style="text;html=1;align=center;verticalAlign=middle;resizable=0;points=[];autosize=1;strokeColor=none;fillColor=none;" vertex="1" parent="1">
          <mxGeometry x="80" y="594" width="30" height="30" as="geometry" />
        </mxCell>
        <mxCell id="c9yHNogpHMQOPI-Mq2PM-21" value="1" style="text;html=1;align=center;verticalAlign=middle;resizable=0;points=[];autosize=1;strokeColor=none;fillColor=none;" vertex="1" parent="1">
          <mxGeometry x="90" y="604" width="30" height="30" as="geometry" />
        </mxCell>
        <mxCell id="c9yHNogpHMQOPI-Mq2PM-22" value="1" style="text;html=1;align=center;verticalAlign=middle;resizable=0;points=[];autosize=1;strokeColor=none;fillColor=none;" vertex="1" parent="1">
          <mxGeometry x="530" y="240" width="30" height="30" as="geometry" />
        </mxCell>
        <mxCell id="c9yHNogpHMQOPI-Mq2PM-23" value="0" style="text;html=1;align=center;verticalAlign=middle;resizable=0;points=[];autosize=1;strokeColor=none;fillColor=none;" vertex="1" parent="1">
          <mxGeometry x="450" y="240" width="30" height="30" as="geometry" />
        </mxCell>
        <mxCell id="c9yHNogpHMQOPI-Mq2PM-24" value="1" style="text;html=1;align=center;verticalAlign=middle;resizable=0;points=[];autosize=1;strokeColor=none;fillColor=none;" vertex="1" parent="1">
          <mxGeometry x="410" y="240" width="30" height="30" as="geometry" />
        </mxCell>
        <mxCell id="c9yHNogpHMQOPI-Mq2PM-25" value="0" style="text;html=1;align=center;verticalAlign=middle;resizable=0;points=[];autosize=1;strokeColor=none;fillColor=none;" vertex="1" parent="1">
          <mxGeometry x="370" y="240" width="30" height="30" as="geometry" />
        </mxCell>
        <mxCell id="c9yHNogpHMQOPI-Mq2PM-26" value="1" style="text;html=1;align=center;verticalAlign=middle;resizable=0;points=[];autosize=1;strokeColor=none;fillColor=none;" vertex="1" parent="1">
          <mxGeometry x="210" y="240" width="30" height="30" as="geometry" />
        </mxCell>
        <mxCell id="c9yHNogpHMQOPI-Mq2PM-27" value="1" style="text;html=1;align=center;verticalAlign=middle;resizable=0;points=[];autosize=1;strokeColor=none;fillColor=none;" vertex="1" parent="1">
          <mxGeometry x="330" y="240" width="30" height="30" as="geometry" />
        </mxCell>
        <mxCell id="c9yHNogpHMQOPI-Mq2PM-28" value="0" style="text;html=1;align=center;verticalAlign=middle;resizable=0;points=[];autosize=1;strokeColor=none;fillColor=none;" vertex="1" parent="1">
          <mxGeometry x="290" y="240" width="30" height="30" as="geometry" />
        </mxCell>
        <mxCell id="c9yHNogpHMQOPI-Mq2PM-29" value="1" style="text;html=1;align=center;verticalAlign=middle;resizable=0;points=[];autosize=1;strokeColor=none;fillColor=none;" vertex="1" parent="1">
          <mxGeometry x="250" y="240" width="30" height="30" as="geometry" />
        </mxCell>
        <mxCell id="c9yHNogpHMQOPI-Mq2PM-30" value="1" style="text;html=1;align=center;verticalAlign=middle;resizable=0;points=[];autosize=1;strokeColor=none;fillColor=none;" vertex="1" parent="1">
          <mxGeometry x="490" y="240" width="30" height="30" as="geometry" />
        </mxCell>
        <mxCell id="c9yHNogpHMQOPI-Mq2PM-31" value="&lt;font style=&quot;font-size: 10px;&quot;&gt;1&lt;/font&gt;" style="text;html=1;align=center;verticalAlign=middle;resizable=0;points=[];autosize=1;strokeColor=none;fillColor=none;" vertex="1" parent="1">
          <mxGeometry x="50" y="240" width="30" height="30" as="geometry" />
        </mxCell>
        <mxCell id="c9yHNogpHMQOPI-Mq2PM-33" value="" style="endArrow=none;html=1;rounded=0;fillColor=light-dark(#FFFFFF,#FF0000);strokeColor=light-dark(#000000,#FF0000);" edge="1" parent="1">
          <mxGeometry width="50" height="50" relative="1" as="geometry">
            <mxPoint x="280" y="340" as="sourcePoint" />
            <mxPoint x="200" y="340" as="targetPoint" />
          </mxGeometry>
        </mxCell>
        <mxCell id="c9yHNogpHMQOPI-Mq2PM-34" value="" style="endArrow=none;html=1;rounded=0;fillColor=light-dark(#FFFFFF,#FF0000);strokeColor=light-dark(#000000,#FF0000);" edge="1" parent="1">
          <mxGeometry width="50" height="50" relative="1" as="geometry">
            <mxPoint x="320" y="340" as="sourcePoint" />
            <mxPoint x="320" y="300" as="targetPoint" />
          </mxGeometry>
        </mxCell>
        <mxCell id="c9yHNogpHMQOPI-Mq2PM-35" value="" style="endArrow=none;html=1;rounded=0;fillColor=light-dark(#FFFFFF,#FF0000);strokeColor=light-dark(#000000,#FF0000);" edge="1" parent="1">
          <mxGeometry width="50" height="50" relative="1" as="geometry">
            <mxPoint x="320" y="300" as="sourcePoint" />
            <mxPoint x="280" y="300" as="targetPoint" />
          </mxGeometry>
        </mxCell>
        <mxCell id="c9yHNogpHMQOPI-Mq2PM-36" value="" style="endArrow=none;html=1;rounded=0;fillColor=light-dark(#FFFFFF,#FF0000);strokeColor=light-dark(#000000,#FF0000);" edge="1" parent="1">
          <mxGeometry width="50" height="50" relative="1" as="geometry">
            <mxPoint x="360" y="340" as="sourcePoint" />
            <mxPoint x="320" y="340" as="targetPoint" />
          </mxGeometry>
        </mxCell>
        <mxCell id="c9yHNogpHMQOPI-Mq2PM-37" value="" style="endArrow=none;html=1;rounded=0;fillColor=light-dark(#FFFFFF,#FF0000);strokeColor=light-dark(#000000,#FF0000);" edge="1" parent="1">
          <mxGeometry width="50" height="50" relative="1" as="geometry">
            <mxPoint x="360" y="300" as="sourcePoint" />
            <mxPoint x="360" y="340" as="targetPoint" />
          </mxGeometry>
        </mxCell>
        <mxCell id="c9yHNogpHMQOPI-Mq2PM-38" value="" style="endArrow=none;html=1;rounded=0;fillColor=light-dark(#FFFFFF,#FF0000);strokeColor=light-dark(#000000,#FF0000);" edge="1" parent="1">
          <mxGeometry width="50" height="50" relative="1" as="geometry">
            <mxPoint x="400" y="300" as="sourcePoint" />
            <mxPoint x="360" y="300" as="targetPoint" />
          </mxGeometry>
        </mxCell>
        <mxCell id="c9yHNogpHMQOPI-Mq2PM-39" value="" style="endArrow=none;html=1;rounded=0;fillColor=light-dark(#FFFFFF,#FF0000);strokeColor=light-dark(#000000,#FF0000);" edge="1" parent="1">
          <mxGeometry width="50" height="50" relative="1" as="geometry">
            <mxPoint x="400" y="340" as="sourcePoint" />
            <mxPoint x="400" y="300" as="targetPoint" />
          </mxGeometry>
        </mxCell>
        <mxCell id="c9yHNogpHMQOPI-Mq2PM-40" value="" style="endArrow=none;html=1;rounded=0;fillColor=light-dark(#FFFFFF,#FF0000);strokeColor=light-dark(#000000,#FF0000);" edge="1" parent="1">
          <mxGeometry width="50" height="50" relative="1" as="geometry">
            <mxPoint x="440" y="340" as="sourcePoint" />
            <mxPoint x="400" y="340" as="targetPoint" />
          </mxGeometry>
        </mxCell>
        <mxCell id="c9yHNogpHMQOPI-Mq2PM-41" value="" style="endArrow=none;html=1;rounded=0;fillColor=light-dark(#FFFFFF,#FF0000);strokeColor=light-dark(#000000,#FF0000);" edge="1" parent="1">
          <mxGeometry width="50" height="50" relative="1" as="geometry">
            <mxPoint x="280" y="340" as="sourcePoint" />
            <mxPoint x="280" y="300" as="targetPoint" />
          </mxGeometry>
        </mxCell>
        <mxCell id="c9yHNogpHMQOPI-Mq2PM-42" value="" style="endArrow=none;html=1;rounded=0;fillColor=light-dark(#FFFFFF,#FF0000);strokeColor=light-dark(#000000,#FF0000);" edge="1" parent="1">
          <mxGeometry width="50" height="50" relative="1" as="geometry">
            <mxPoint x="440" y="300" as="sourcePoint" />
            <mxPoint x="440" y="340" as="targetPoint" />
          </mxGeometry>
        </mxCell>
        <mxCell id="c9yHNogpHMQOPI-Mq2PM-43" value="" style="endArrow=none;html=1;rounded=0;fillColor=light-dark(#FFFFFF,#FF0000);strokeColor=light-dark(#000000,#FF0000);" edge="1" parent="1">
          <mxGeometry width="50" height="50" relative="1" as="geometry">
            <mxPoint x="480" y="340" as="sourcePoint" />
            <mxPoint x="480" y="300" as="targetPoint" />
          </mxGeometry>
        </mxCell>
        <mxCell id="c9yHNogpHMQOPI-Mq2PM-44" value="" style="endArrow=none;html=1;rounded=0;fillColor=light-dark(#FFFFFF,#FF0000);strokeColor=light-dark(#000000,#FF0000);" edge="1" parent="1">
          <mxGeometry width="50" height="50" relative="1" as="geometry">
            <mxPoint x="480" y="300" as="sourcePoint" />
            <mxPoint x="440" y="300" as="targetPoint" />
          </mxGeometry>
        </mxCell>
        <mxCell id="c9yHNogpHMQOPI-Mq2PM-45" value="" style="endArrow=none;html=1;rounded=0;fillColor=light-dark(#FFFFFF,#FF0000);strokeColor=light-dark(#000000,#FF0000);" edge="1" parent="1">
          <mxGeometry width="50" height="50" relative="1" as="geometry">
            <mxPoint x="560" y="340" as="sourcePoint" />
            <mxPoint x="480" y="340" as="targetPoint" />
          </mxGeometry>
        </mxCell>
        <mxCell id="c9yHNogpHMQOPI-Mq2PM-46" value="" style="endArrow=none;html=1;rounded=0;fillColor=light-dark(#FFFFFF,#FF0000);strokeColor=light-dark(#000000,#FF0000);" edge="1" parent="1">
          <mxGeometry width="50" height="50" relative="1" as="geometry">
            <mxPoint x="330" y="584" as="sourcePoint" />
            <mxPoint x="250" y="584" as="targetPoint" />
          </mxGeometry>
        </mxCell>
        <mxCell id="c9yHNogpHMQOPI-Mq2PM-47" value="" style="endArrow=none;html=1;rounded=0;fillColor=light-dark(#FFFFFF,#FF0000);strokeColor=light-dark(#000000,#FF0000);" edge="1" parent="1">
          <mxGeometry width="50" height="50" relative="1" as="geometry">
            <mxPoint x="340" y="594" as="sourcePoint" />
            <mxPoint x="260" y="594" as="targetPoint" />
          </mxGeometry>
        </mxCell>
        <mxCell id="c9yHNogpHMQOPI-Mq2PM-48" value="" style="endArrow=none;html=1;rounded=0;fillColor=light-dark(#FFFFFF,#FF0000);strokeColor=light-dark(#000000,#FF0000);" edge="1" parent="1">
          <mxGeometry width="50" height="50" relative="1" as="geometry">
            <mxPoint x="350" y="604" as="sourcePoint" />
            <mxPoint x="270" y="604" as="targetPoint" />
          </mxGeometry>
        </mxCell>
        <mxCell id="c9yHNogpHMQOPI-Mq2PM-49" value="" style="endArrow=none;html=1;rounded=0;fillColor=light-dark(#FFFFFF,#FF0000);strokeColor=light-dark(#000000,#FF0000);" edge="1" parent="1">
          <mxGeometry width="50" height="50" relative="1" as="geometry">
            <mxPoint x="360" y="614" as="sourcePoint" />
            <mxPoint x="280" y="614" as="targetPoint" />
          </mxGeometry>
        </mxCell>
        <mxCell id="c9yHNogpHMQOPI-Mq2PM-50" value="" style="endArrow=none;html=1;rounded=0;fillColor=light-dark(#FFFFFF,#FF0000);strokeColor=light-dark(#000000,#0000FF);" edge="1" parent="1">
          <mxGeometry width="50" height="50" relative="1" as="geometry">
            <mxPoint x="120" y="480" as="sourcePoint" />
            <mxPoint x="40" y="480" as="targetPoint" />
          </mxGeometry>
        </mxCell>
        <mxCell id="c9yHNogpHMQOPI-Mq2PM-51" value="" style="endArrow=none;html=1;rounded=0;fillColor=light-dark(#FFFFFF,#FF0000);strokeColor=light-dark(#000000,#0000FF);" edge="1" parent="1">
          <mxGeometry width="50" height="50" relative="1" as="geometry">
            <mxPoint x="350" y="634" as="sourcePoint" />
            <mxPoint x="270" y="634" as="targetPoint" />
          </mxGeometry>
        </mxCell>
        <mxCell id="c9yHNogpHMQOPI-Mq2PM-52" value="" style="endArrow=none;html=1;rounded=0;fillColor=light-dark(#FFFFFF,#FF0000);strokeColor=light-dark(#000000,#00FF00);movable=1;resizable=1;rotatable=1;deletable=1;editable=1;locked=0;connectable=1;" edge="1" parent="1">
          <mxGeometry width="50" height="50" relative="1" as="geometry">
            <mxPoint x="240" y="420" as="sourcePoint" />
            <mxPoint x="200" y="420" as="targetPoint" />
          </mxGeometry>
        </mxCell>
        <mxCell id="c9yHNogpHMQOPI-Mq2PM-53" value="" style="endArrow=none;html=1;rounded=0;fillColor=light-dark(#FFFFFF,#FF0000);strokeColor=light-dark(#000000,#0000FF);" edge="1" parent="1">
          <mxGeometry width="50" height="50" relative="1" as="geometry">
            <mxPoint x="130" y="574" as="sourcePoint" />
            <mxPoint x="50" y="574" as="targetPoint" />
          </mxGeometry>
        </mxCell>
        <mxCell id="c9yHNogpHMQOPI-Mq2PM-54" value="" style="endArrow=none;html=1;rounded=0;fillColor=light-dark(#FFFFFF,#FF0000);strokeColor=light-dark(#000000,#0000FF);" edge="1" parent="1">
          <mxGeometry width="50" height="50" relative="1" as="geometry">
            <mxPoint x="140" y="584" as="sourcePoint" />
            <mxPoint x="60" y="584" as="targetPoint" />
          </mxGeometry>
        </mxCell>
        <mxCell id="c9yHNogpHMQOPI-Mq2PM-55" value="" style="endArrow=none;html=1;rounded=0;fillColor=light-dark(#FFFFFF,#FF0000);strokeColor=light-dark(#000000,#0000FF);" edge="1" parent="1">
          <mxGeometry width="50" height="50" relative="1" as="geometry">
            <mxPoint x="150" y="594" as="sourcePoint" />
            <mxPoint x="70" y="594" as="targetPoint" />
          </mxGeometry>
        </mxCell>
        <mxCell id="c9yHNogpHMQOPI-Mq2PM-56" value="" style="endArrow=none;html=1;rounded=0;fillColor=light-dark(#FFFFFF,#FF0000);strokeColor=light-dark(#000000,#0000FF);" edge="1" parent="1">
          <mxGeometry width="50" height="50" relative="1" as="geometry">
            <mxPoint x="160" y="604" as="sourcePoint" />
            <mxPoint x="80" y="604" as="targetPoint" />
          </mxGeometry>
        </mxCell>
        <mxCell id="c9yHNogpHMQOPI-Mq2PM-57" value="" style="endArrow=none;html=1;rounded=0;fillColor=light-dark(#FFFFFF,#FF0000);strokeColor=light-dark(#000000,#0000FF);" edge="1" parent="1">
          <mxGeometry width="50" height="50" relative="1" as="geometry">
            <mxPoint x="170" y="614" as="sourcePoint" />
            <mxPoint x="90" y="614" as="targetPoint" />
          </mxGeometry>
        </mxCell>
        <mxCell id="c9yHNogpHMQOPI-Mq2PM-58" value="" style="endArrow=none;html=1;rounded=0;fillColor=light-dark(#FFFFFF,#FF0000);strokeColor=light-dark(#000000,#0000FF);" edge="1" parent="1">
          <mxGeometry width="50" height="50" relative="1" as="geometry">
            <mxPoint x="180" y="624" as="sourcePoint" />
            <mxPoint x="100" y="624" as="targetPoint" />
          </mxGeometry>
        </mxCell>
        <mxCell id="c9yHNogpHMQOPI-Mq2PM-59" value="" style="endArrow=none;html=1;rounded=0;fillColor=light-dark(#FFFFFF,#FF0000);strokeColor=light-dark(#000000,#0000FF);movable=1;resizable=1;rotatable=1;deletable=1;editable=1;locked=0;connectable=1;" edge="1" parent="1">
          <mxGeometry width="50" height="50" relative="1" as="geometry">
            <mxPoint x="200" y="564" as="sourcePoint" />
            <mxPoint x="120" y="564" as="targetPoint" />
          </mxGeometry>
        </mxCell>
        <mxCell id="c9yHNogpHMQOPI-Mq2PM-60" value="" style="endArrow=none;html=1;rounded=0;fillColor=light-dark(#FFFFFF,#FF0000);strokeColor=light-dark(#000000,#00FF00);movable=1;resizable=1;rotatable=1;deletable=1;editable=1;locked=0;connectable=1;" edge="1" parent="1">
          <mxGeometry width="50" height="50" relative="1" as="geometry">
            <mxPoint x="400" y="420" as="sourcePoint" />
            <mxPoint x="320" y="420" as="targetPoint" />
          </mxGeometry>
        </mxCell>
        <mxCell id="c9yHNogpHMQOPI-Mq2PM-61" value="" style="endArrow=none;html=1;rounded=0;fillColor=light-dark(#FFFFFF,#FF0000);strokeColor=light-dark(#000000,#00FF00);movable=1;resizable=1;rotatable=1;deletable=1;editable=1;locked=0;connectable=1;" edge="1" parent="1">
          <mxGeometry width="50" height="50" relative="1" as="geometry">
            <mxPoint x="320" y="380" as="sourcePoint" />
            <mxPoint x="240" y="380" as="targetPoint" />
          </mxGeometry>
        </mxCell>
        <mxCell id="c9yHNogpHMQOPI-Mq2PM-62" value="" style="endArrow=none;html=1;rounded=0;fillColor=light-dark(#FFFFFF,#FF0000);strokeColor=light-dark(#000000,#00FF00);movable=1;resizable=1;rotatable=1;deletable=1;editable=1;locked=0;connectable=1;" edge="1" parent="1">
          <mxGeometry width="50" height="50" relative="1" as="geometry">
            <mxPoint x="480" y="380" as="sourcePoint" />
            <mxPoint x="400" y="380" as="targetPoint" />
          </mxGeometry>
        </mxCell>
        <mxCell id="c9yHNogpHMQOPI-Mq2PM-63" value="" style="endArrow=none;html=1;rounded=0;fillColor=light-dark(#FFFFFF,#FF0000);strokeColor=light-dark(#000000,#00FF00);movable=1;resizable=1;rotatable=1;deletable=1;editable=1;locked=0;connectable=1;" edge="1" parent="1">
          <mxGeometry width="50" height="50" relative="1" as="geometry">
            <mxPoint x="380" y="554" as="sourcePoint" />
            <mxPoint x="300" y="554" as="targetPoint" />
          </mxGeometry>
        </mxCell>
        <mxCell id="c9yHNogpHMQOPI-Mq2PM-64" value="" style="endArrow=none;html=1;rounded=0;fillColor=light-dark(#FFFFFF,#FF0000);strokeColor=light-dark(#000000,#00FF00);movable=1;resizable=1;rotatable=1;deletable=1;editable=1;locked=0;connectable=1;" edge="1" parent="1">
          <mxGeometry width="50" height="50" relative="1" as="geometry">
            <mxPoint x="390" y="564" as="sourcePoint" />
            <mxPoint x="310" y="564" as="targetPoint" />
          </mxGeometry>
        </mxCell>
        <mxCell id="c9yHNogpHMQOPI-Mq2PM-65" value="" style="endArrow=none;html=1;rounded=0;fillColor=light-dark(#FFFFFF,#FF0000);strokeColor=light-dark(#000000,#00FF00);movable=1;resizable=1;rotatable=1;deletable=1;editable=1;locked=0;connectable=1;" edge="1" parent="1">
          <mxGeometry width="50" height="50" relative="1" as="geometry">
            <mxPoint x="400" y="574" as="sourcePoint" />
            <mxPoint x="320" y="574" as="targetPoint" />
          </mxGeometry>
        </mxCell>
        <mxCell id="c9yHNogpHMQOPI-Mq2PM-66" value="" style="endArrow=none;html=1;rounded=0;fillColor=light-dark(#FFFFFF,#FF0000);strokeColor=light-dark(#000000,#00FF00);movable=1;resizable=1;rotatable=1;deletable=1;editable=1;locked=0;connectable=1;" edge="1" parent="1">
          <mxGeometry width="50" height="50" relative="1" as="geometry">
            <mxPoint x="410" y="584" as="sourcePoint" />
            <mxPoint x="330" y="584" as="targetPoint" />
          </mxGeometry>
        </mxCell>
        <mxCell id="c9yHNogpHMQOPI-Mq2PM-67" value="" style="endArrow=none;html=1;rounded=0;fillColor=light-dark(#FFFFFF,#FF0000);strokeColor=light-dark(#000000,#00FF00);movable=1;resizable=1;rotatable=1;deletable=1;editable=1;locked=0;connectable=1;" edge="1" parent="1">
          <mxGeometry width="50" height="50" relative="1" as="geometry">
            <mxPoint x="420" y="594" as="sourcePoint" />
            <mxPoint x="340" y="594" as="targetPoint" />
          </mxGeometry>
        </mxCell>
        <mxCell id="c9yHNogpHMQOPI-Mq2PM-68" value="" style="endArrow=none;html=1;rounded=0;fillColor=light-dark(#FFFFFF,#FF0000);strokeColor=light-dark(#000000,#00FF00);movable=1;resizable=1;rotatable=1;deletable=1;editable=1;locked=0;connectable=1;" edge="1" parent="1">
          <mxGeometry width="50" height="50" relative="1" as="geometry">
            <mxPoint x="430" y="604" as="sourcePoint" />
            <mxPoint x="350" y="604" as="targetPoint" />
          </mxGeometry>
        </mxCell>
        <mxCell id="c9yHNogpHMQOPI-Mq2PM-69" value="" style="endArrow=none;html=1;rounded=0;fillColor=light-dark(#FFFFFF,#FF0000);strokeColor=light-dark(#000000,#00FF00);movable=1;resizable=1;rotatable=1;deletable=1;editable=1;locked=0;connectable=1;" edge="1" parent="1">
          <mxGeometry width="50" height="50" relative="1" as="geometry">
            <mxPoint x="440" y="614" as="sourcePoint" />
            <mxPoint x="360" y="614" as="targetPoint" />
          </mxGeometry>
        </mxCell>
        <mxCell id="c9yHNogpHMQOPI-Mq2PM-70" value="" style="endArrow=none;html=1;rounded=0;fillColor=light-dark(#FFFFFF,#FF0000);strokeColor=light-dark(#000000,#00FF00);movable=1;resizable=1;rotatable=1;deletable=1;editable=1;locked=0;connectable=1;" edge="1" parent="1">
          <mxGeometry width="50" height="50" relative="1" as="geometry">
            <mxPoint x="450" y="624" as="sourcePoint" />
            <mxPoint x="370" y="624" as="targetPoint" />
          </mxGeometry>
        </mxCell>
        <mxCell id="c9yHNogpHMQOPI-Mq2PM-71" value="" style="endArrow=none;html=1;rounded=0;fillColor=light-dark(#FFFFFF,#FF0000);strokeColor=light-dark(#000000,#00FF00);movable=1;resizable=1;rotatable=1;deletable=1;editable=1;locked=0;connectable=1;" edge="1" parent="1">
          <mxGeometry width="50" height="50" relative="1" as="geometry">
            <mxPoint x="460" y="634" as="sourcePoint" />
            <mxPoint x="380" y="634" as="targetPoint" />
          </mxGeometry>
        </mxCell>
        <mxCell id="c9yHNogpHMQOPI-Mq2PM-72" value="" style="endArrow=none;html=1;rounded=0;fillColor=light-dark(#FFFFFF,#FF0000);strokeColor=light-dark(#000000,#00FF00);movable=1;resizable=1;rotatable=1;deletable=1;editable=1;locked=0;connectable=1;" edge="1" parent="1">
          <mxGeometry width="50" height="50" relative="1" as="geometry">
            <mxPoint x="470" y="644" as="sourcePoint" />
            <mxPoint x="390" y="644" as="targetPoint" />
          </mxGeometry>
        </mxCell>
        <mxCell id="c9yHNogpHMQOPI-Mq2PM-73" value="" style="endArrow=none;html=1;rounded=0;fillColor=light-dark(#FFFFFF,#FF0000);strokeColor=light-dark(#000000,#00FF00);movable=1;resizable=1;rotatable=1;deletable=1;editable=1;locked=0;connectable=1;" edge="1" parent="1">
          <mxGeometry width="50" height="50" relative="1" as="geometry">
            <mxPoint x="520" y="420" as="sourcePoint" />
            <mxPoint x="480" y="420" as="targetPoint" />
          </mxGeometry>
        </mxCell>
        <mxCell id="c9yHNogpHMQOPI-Mq2PM-74" value="" style="endArrow=none;html=1;rounded=0;fillColor=light-dark(#FFFFFF,#FF0000);strokeColor=light-dark(#000000,#00FF00);movable=1;resizable=1;rotatable=1;deletable=1;editable=1;locked=0;connectable=1;" edge="1" parent="1">
          <mxGeometry width="50" height="50" relative="1" as="geometry">
            <mxPoint x="270" y="554" as="sourcePoint" />
            <mxPoint x="230" y="554" as="targetPoint" />
          </mxGeometry>
        </mxCell>
        <mxCell id="c9yHNogpHMQOPI-Mq2PM-75" value="" style="endArrow=none;html=1;rounded=0;fillColor=light-dark(#FFFFFF,#FF0000);strokeColor=light-dark(#000000,#00FF00);movable=1;resizable=1;rotatable=1;deletable=1;editable=1;locked=0;connectable=1;" edge="1" parent="1">
          <mxGeometry width="50" height="50" relative="1" as="geometry">
            <mxPoint x="560" y="380" as="sourcePoint" />
            <mxPoint x="520" y="380" as="targetPoint" />
          </mxGeometry>
        </mxCell>
        <mxCell id="c9yHNogpHMQOPI-Mq2PM-76" value="" style="endArrow=none;html=1;rounded=0;fillColor=light-dark(#FFFFFF,#FF0000);strokeColor=light-dark(#000000,#00FF00);movable=1;resizable=1;rotatable=1;deletable=1;editable=1;locked=0;connectable=1;" edge="1" parent="1">
          <mxGeometry width="50" height="50" relative="1" as="geometry">
            <mxPoint x="450" y="554" as="sourcePoint" />
            <mxPoint x="410" y="554" as="targetPoint" />
          </mxGeometry>
        </mxCell>
        <mxCell id="c9yHNogpHMQOPI-Mq2PM-77" value="" style="endArrow=none;html=1;rounded=0;fillColor=light-dark(#FFFFFF,#FF0000);strokeColor=light-dark(#000000,#00FF00);movable=1;resizable=1;rotatable=1;deletable=1;editable=1;locked=0;connectable=1;" edge="1" parent="1">
          <mxGeometry width="50" height="50" relative="1" as="geometry">
            <mxPoint x="460" y="564" as="sourcePoint" />
            <mxPoint x="420" y="564" as="targetPoint" />
          </mxGeometry>
        </mxCell>
        <mxCell id="c9yHNogpHMQOPI-Mq2PM-78" value="" style="endArrow=none;html=1;rounded=0;fillColor=light-dark(#FFFFFF,#FF0000);strokeColor=light-dark(#000000,#00FF00);movable=1;resizable=1;rotatable=1;deletable=1;editable=1;locked=0;connectable=1;" edge="1" parent="1">
          <mxGeometry width="50" height="50" relative="1" as="geometry">
            <mxPoint x="470" y="574" as="sourcePoint" />
            <mxPoint x="430" y="574" as="targetPoint" />
          </mxGeometry>
        </mxCell>
        <mxCell id="c9yHNogpHMQOPI-Mq2PM-79" value="" style="endArrow=none;html=1;rounded=0;fillColor=light-dark(#FFFFFF,#FF0000);strokeColor=light-dark(#000000,#00FF00);movable=1;resizable=1;rotatable=1;deletable=1;editable=1;locked=0;connectable=1;" edge="1" parent="1">
          <mxGeometry width="50" height="50" relative="1" as="geometry">
            <mxPoint x="480" y="584" as="sourcePoint" />
            <mxPoint x="440" y="584" as="targetPoint" />
          </mxGeometry>
        </mxCell>
        <mxCell id="c9yHNogpHMQOPI-Mq2PM-80" value="" style="endArrow=none;html=1;rounded=0;fillColor=light-dark(#FFFFFF,#FF0000);strokeColor=light-dark(#000000,#00FF00);movable=1;resizable=1;rotatable=1;deletable=1;editable=1;locked=0;connectable=1;" edge="1" parent="1">
          <mxGeometry width="50" height="50" relative="1" as="geometry">
            <mxPoint x="500" y="520" as="sourcePoint" />
            <mxPoint x="460" y="520" as="targetPoint" />
          </mxGeometry>
        </mxCell>
        <mxCell id="c9yHNogpHMQOPI-Mq2PM-81" value="" style="endArrow=none;html=1;rounded=0;fillColor=light-dark(#FFFFFF,#FF0000);strokeColor=light-dark(#000000,#00FF00);movable=1;resizable=1;rotatable=1;deletable=1;editable=1;locked=0;connectable=1;" edge="1" parent="1">
          <mxGeometry width="50" height="50" relative="1" as="geometry">
            <mxPoint x="510" y="530" as="sourcePoint" />
            <mxPoint x="470" y="530" as="targetPoint" />
          </mxGeometry>
        </mxCell>
        <mxCell id="c9yHNogpHMQOPI-Mq2PM-82" value="" style="endArrow=none;html=1;rounded=0;fillColor=light-dark(#FFFFFF,#FF0000);strokeColor=light-dark(#000000,#00FF00);movable=1;resizable=1;rotatable=1;deletable=1;editable=1;locked=0;connectable=1;" edge="1" parent="1">
          <mxGeometry width="50" height="50" relative="1" as="geometry">
            <mxPoint x="520" y="540" as="sourcePoint" />
            <mxPoint x="480" y="540" as="targetPoint" />
          </mxGeometry>
        </mxCell>
        <mxCell id="c9yHNogpHMQOPI-Mq2PM-83" value="" style="endArrow=none;html=1;rounded=0;fillColor=light-dark(#FFFFFF,#FF0000);strokeColor=light-dark(#000000,#00FF00);movable=1;resizable=1;rotatable=1;deletable=1;editable=1;locked=0;connectable=1;" edge="1" parent="1">
          <mxGeometry width="50" height="50" relative="1" as="geometry">
            <mxPoint x="530" y="550" as="sourcePoint" />
            <mxPoint x="490" y="550" as="targetPoint" />
          </mxGeometry>
        </mxCell>
        <mxCell id="c9yHNogpHMQOPI-Mq2PM-84" value="" style="endArrow=none;html=1;rounded=0;fillColor=light-dark(#FFFFFF,#FF0000);strokeColor=light-dark(#000000,#00FF00);movable=1;resizable=1;rotatable=1;deletable=1;editable=1;locked=0;connectable=1;" edge="1" parent="1">
          <mxGeometry width="50" height="50" relative="1" as="geometry">
            <mxPoint x="540" y="560" as="sourcePoint" />
            <mxPoint x="500" y="560" as="targetPoint" />
          </mxGeometry>
        </mxCell>
        <mxCell id="c9yHNogpHMQOPI-Mq2PM-85" value="" style="endArrow=none;html=1;rounded=0;fillColor=light-dark(#FFFFFF,#FF0000);strokeColor=light-dark(#000000,#00FF00);movable=1;resizable=1;rotatable=1;deletable=1;editable=1;locked=0;connectable=1;" edge="1" parent="1">
          <mxGeometry width="50" height="50" relative="1" as="geometry">
            <mxPoint x="160" y="654" as="sourcePoint" />
            <mxPoint x="160" y="614" as="targetPoint" />
          </mxGeometry>
        </mxCell>
        <mxCell id="c9yHNogpHMQOPI-Mq2PM-86" value="" style="endArrow=none;html=1;rounded=0;fillColor=light-dark(#FFFFFF,#FF0000);strokeColor=light-dark(#000000,#00FF00);movable=1;resizable=1;rotatable=1;deletable=1;editable=1;locked=0;connectable=1;" edge="1" parent="1">
          <mxGeometry width="50" height="50" relative="1" as="geometry">
            <mxPoint x="230" y="684" as="sourcePoint" />
            <mxPoint x="230" y="644" as="targetPoint" />
          </mxGeometry>
        </mxCell>
        <mxCell id="c9yHNogpHMQOPI-Mq2PM-87" value="" style="endArrow=none;html=1;rounded=0;fillColor=light-dark(#FFFFFF,#FF0000);strokeColor=light-dark(#000000,#00FF00);movable=1;resizable=1;rotatable=1;deletable=1;editable=1;locked=0;connectable=1;" edge="1" parent="1">
          <mxGeometry width="50" height="50" relative="1" as="geometry">
            <mxPoint x="270" y="684" as="sourcePoint" />
            <mxPoint x="270" y="644" as="targetPoint" />
          </mxGeometry>
        </mxCell>
        <mxCell id="c9yHNogpHMQOPI-Mq2PM-88" value="" style="endArrow=none;html=1;rounded=0;fillColor=light-dark(#FFFFFF,#FF0000);strokeColor=light-dark(#000000,#00FF00);movable=1;resizable=1;rotatable=1;deletable=1;editable=1;locked=0;connectable=1;" edge="1" parent="1">
          <mxGeometry width="50" height="50" relative="1" as="geometry">
            <mxPoint x="200" y="564" as="sourcePoint" />
            <mxPoint x="200" y="524" as="targetPoint" />
          </mxGeometry>
        </mxCell>
        <mxCell id="c9yHNogpHMQOPI-Mq2PM-89" value="" style="endArrow=none;html=1;rounded=0;fillColor=light-dark(#FFFFFF,#FF0000);strokeColor=light-dark(#000000,#00FF00);movable=1;resizable=1;rotatable=1;deletable=1;editable=1;locked=0;connectable=1;" edge="1" parent="1">
          <mxGeometry width="50" height="50" relative="1" as="geometry">
            <mxPoint x="214.82999999999998" y="564" as="sourcePoint" />
            <mxPoint x="214.82999999999998" y="524" as="targetPoint" />
          </mxGeometry>
        </mxCell>
        <mxCell id="c9yHNogpHMQOPI-Mq2PM-90" value="" style="endArrow=none;html=1;rounded=0;fillColor=light-dark(#FFFFFF,#FF0000);strokeColor=light-dark(#000000,#00FF00);movable=1;resizable=1;rotatable=1;deletable=1;editable=1;locked=0;connectable=1;" edge="1" parent="1">
          <mxGeometry width="50" height="50" relative="1" as="geometry">
            <mxPoint x="520" y="420" as="sourcePoint" />
            <mxPoint x="520" y="380" as="targetPoint" />
          </mxGeometry>
        </mxCell>
        <mxCell id="c9yHNogpHMQOPI-Mq2PM-91" value="" style="endArrow=none;html=1;rounded=0;fillColor=light-dark(#FFFFFF,#FF0000);strokeColor=light-dark(#000000,#00FF00);movable=1;resizable=1;rotatable=1;deletable=1;editable=1;locked=0;connectable=1;" edge="1" parent="1">
          <mxGeometry width="50" height="50" relative="1" as="geometry">
            <mxPoint x="480" y="420" as="sourcePoint" />
            <mxPoint x="480" y="380" as="targetPoint" />
          </mxGeometry>
        </mxCell>
        <mxCell id="c9yHNogpHMQOPI-Mq2PM-92" value="" style="endArrow=none;html=1;rounded=0;fillColor=light-dark(#FFFFFF,#FF0000);strokeColor=light-dark(#000000,#00FF00);movable=1;resizable=1;rotatable=1;deletable=1;editable=1;locked=0;connectable=1;" edge="1" parent="1">
          <mxGeometry width="50" height="50" relative="1" as="geometry">
            <mxPoint x="400" y="420" as="sourcePoint" />
            <mxPoint x="400" y="380" as="targetPoint" />
          </mxGeometry>
        </mxCell>
        <mxCell id="c9yHNogpHMQOPI-Mq2PM-93" value="" style="endArrow=none;html=1;rounded=0;fillColor=light-dark(#FFFFFF,#FF0000);strokeColor=light-dark(#000000,#00FF00);movable=1;resizable=1;rotatable=1;deletable=1;editable=1;locked=0;connectable=1;" edge="1" parent="1">
          <mxGeometry width="50" height="50" relative="1" as="geometry">
            <mxPoint x="320" y="420" as="sourcePoint" />
            <mxPoint x="320" y="380" as="targetPoint" />
          </mxGeometry>
        </mxCell>
        <mxCell id="c9yHNogpHMQOPI-Mq2PM-94" value="" style="endArrow=none;html=1;rounded=0;fillColor=light-dark(#FFFFFF,#FF0000);strokeColor=light-dark(#000000,#00FF00);movable=1;resizable=1;rotatable=1;deletable=1;editable=1;locked=0;connectable=1;" edge="1" parent="1">
          <mxGeometry width="50" height="50" relative="1" as="geometry">
            <mxPoint x="240" y="420" as="sourcePoint" />
            <mxPoint x="240" y="380" as="targetPoint" />
          </mxGeometry>
        </mxCell>
        <mxCell id="c9yHNogpHMQOPI-Mq2PM-95" value="&lt;i&gt;&lt;b&gt;NRZ-L&lt;/b&gt;&lt;/i&gt;" style="text;html=1;align=center;verticalAlign=middle;resizable=0;points=[];autosize=1;strokeColor=none;fillColor=none;" vertex="1" parent="1">
          <mxGeometry x="130" y="300" width="60" height="30" as="geometry" />
        </mxCell>
        <mxCell id="c9yHNogpHMQOPI-Mq2PM-96" value="&lt;i&gt;&lt;b&gt;NRZ-I&lt;/b&gt;&lt;/i&gt;" style="text;html=1;align=center;verticalAlign=middle;resizable=0;points=[];autosize=1;strokeColor=none;fillColor=none;" vertex="1" parent="1">
          <mxGeometry x="130" y="380" width="60" height="30" as="geometry" />
        </mxCell>
      </root>
    </mxGraphModel>
  </diagram>
</mxfile>
